<?xml version="1.0" encoding="UTF-8"?>
<svg viewBox="0 0 212 164" version="1.1" xmlns="http://www.w3.org/2000/svg">
  <title>For Developers</title>
  <mask id="mask" fill="white">
    <polygon points="0 121 212 121 212 0 0 0"></polygon>
  </mask>
  <ellipse fill="#FFCE9E" cx="106" cy="82" rx="82" ry="82"></ellipse>
  <g transform="translate(0, 21)">
    <path d="M192,108 L192,52.6634143 L192,20.3892951 L192,4.12634475 C192,2.40075564 190.6036,1 188.880218,1 L22.1190746,1 C20.3963999,1 19,2.40075564 19,4.12634475 L19,108 L192,108 L192,108 Z" fill="#F6E1ED"></path>
    <path d="M194,108 L192.579753,108 L192.579753,3.84525628 C192.579753,2.50898172 191.493974,1.42232524 190.159652,1.42232524 L22.8396379,1.42232524 C21.5060259,1.42232524 20.420247,2.50898172 20.420247,3.84525628 L20.420247,108 L19,108 L19,3.84525628 C19,1.72528051 20.7227597,0 22.8396379,0 L190.159652,0 C192.27724,0 194,1.72528051 194,3.84525628 L194,108 Z" fill="#201B30"></path>
    <path d="M1,109 L1,117.48794 C1,119.427467 2.60628361,121 4.58831022,121 L207.410982,121 C209.393009,121 211,119.427467 211,117.48794 L211,109 L1,109 Z" fill="#F6E1ED"></path>
    <path d="M1.41914711,109.448601 L1.41914711,117.602773 C1.41914711,119.228827 2.71482841,120.551399 4.30782104,120.551399 L207.691469,120.551399 C209.284462,120.551399 210.580853,119.228827 210.580853,117.602773 L210.580853,109.448601 L1.41914711,109.448601 Z M207.691469,122 L4.30782104,122 C1.93216878,122 0,120.027006 0,117.602773 L0,108 L212,108 L212,117.602773 C212,120.027006 210.067831,122 207.691469,122 L207.691469,122 Z" fill="#201B30"></path>
    <path d="M83,109 L83,112.983333 C83,114.097333 83.9559945,115 85.1358076,115 L126.863486,115 C128.043299,115 129,114.097333 129,112.983333 L129,109 L83,109 Z" fill="#F6E1ED"></path>
    <path d="M83.4296351,109.454545 L83.4296351,113.072727 C83.4296351,113.885091 84.0786895,114.545455 84.8764259,114.545455 L127.122859,114.545455 C127.92131,114.545455 128.570365,113.885091 128.570365,113.072727 L128.570365,109.454545 L83.4296351,109.454545 Z M127.122859,116 L84.8764259,116 C83.2909605,116 82,114.686545 82,113.072727 L82,108 L130,108 L130,113.072727 C130,114.686545 128.709754,116 127.122859,116 L127.122859,116 Z" fill="#201B30"></path>
    <polygon fill="#201B30" points="182 35.4356231 182 101 30 101 30 11 182 11 182 19.3454859"></polygon>
    <path d="M30.4205332,99.5835248 L181.579467,99.5835248 L181.579467,12.4164752 L30.4205332,12.4164752 L30.4205332,99.5835248 Z M29,101 L183,101 L183,11 L29,11 L29,101 Z" fill="#201B30" mask="url(#mask)"></path>
    <path d="M68.7028246,33 L48.2978909,33 C47.5809743,33 47,32.4584862 47,31.7909303 L47,30.2097366 C47,29.5415138 47.5809743,29 48.2978909,29 L68.7028246,29 C69.4197412,29 70,29.5415138 70,30.2097366 L70,31.7909303 C70,32.4584862 69.4197412,33 68.7028246,33" fill="#33C2E0" mask="url(#mask)"></path>
    <path d="M96.7157917,76 L48.2849167,76 C47.5751667,76 47,75.4584862 47,74.7909303 L47,73.2097366 C47,72.5415138 47.5751667,72 48.2849167,72 L96.7157917,72 C97.4255417,72 98,72.5415138 98,73.2097366 L98,74.7909303 C98,75.4584862 97.4255417,76 96.7157917,76" fill="#33C2E0" mask="url(#mask)"></path>
    <path d="M137.707547,51 L53.2931662,51 C52.5788594,51 52,50.4584862 52,49.7909303 L52,48.2097366 C52,47.5415138 52.5788594,47 53.2931662,47 L137.707547,47 C138.421853,47 139,47.5415138 139,48.2097366 L139,49.7909303 C139,50.4584862 138.421853,51 137.707547,51" fill="#C84494" mask="url(#mask)"></path>
    <path d="M137.707547,59 L53.2931662,59 C52.5788594,59 52,58.4584862 52,57.7909303 L52,56.2097366 C52,55.5415138 52.5788594,55 53.2931662,55 L137.707547,55 C138.421853,55 139,55.5415138 139,56.2097366 L139,57.7909303 C139,58.4584862 138.421853,59 137.707547,59" fill="#C84494" mask="url(#mask)"></path>
    <path d="M137.707547,68 L53.2931662,68 C52.5788594,68 52,67.4584862 52,66.7909303 L52,65.2097366 C52,64.5415138 52.5788594,64 53.2931662,64 L137.707547,64 C138.421853,64 139,64.5415138 139,65.2097366 L139,66.7909303 C139,67.4584862 138.421853,68 137.707547,68" fill="#C84494" mask="url(#mask)"></path>
    <path d="M75.7042596,42 L48.2964551,42 C47.5803316,42 47,41.4584862 47,40.7909303 L47,39.2097366 C47,38.5415138 47.5803316,38 48.2964551,38 L75.7042596,38 C76.4203831,38 77,38.5415138 77,39.2097366 L77,40.7909303 C77,41.4584862 76.4203831,42 75.7042596,42" fill="#33C2E0" mask="url(#mask)"></path>
    <polygon fill="#FCD10A" mask="url(#mask)" points="47 68 49 68 49 47 47 47"></polygon>
  </g>
</svg>
