<?xml version="1.0" encoding="UTF-8"?>
<svg viewBox="0 0 212 164" version="1.1" xmlns="http://www.w3.org/2000/svg">
  <title>For Clients</title>
  <mask id="mask" fill="white">
    <polygon points="0 121 212 121 212 0 0 0"></polygon>
  </mask>
  <ellipse fill="#FFCE9E" cx="106" cy="82" rx="82" ry="82"></ellipse>
  <g transform="translate(0, 21)">
    <path d="M192,108 L192,52.6634143 L192,20.3892951 L192,4.12634475 C192,2.40075564 190.6036,1 188.880218,1 L22.1190746,1 C20.3963999,1 19,2.40075564 19,4.12634475 L19,108 L192,108 L192,108 Z" fill="#F6E1ED"></path>
    <path d="M194,108 L192.579753,108 L192.579753,3.84594212 C192.579753,2.50967636 191.493974,1.42231587 190.159652,1.42231587 L22.840348,1.42231587 C21.5060259,1.42231587 20.420247,2.50967636 20.420247,3.84594212 L20.420247,108 L19,108 L19,3.84594212 C19,1.72526915 20.7227597,0 22.840348,0 L190.159652,0 C192.27724,0 194,1.72526915 194,3.84594212 L194,108 Z" fill="#201B30"></path>
    <path d="M1,108 L1,116.48794 C1,118.427467 2.60628361,120 4.58831022,120 L207.410982,120 C209.393009,120 211,118.427467 211,116.48794 L211,108 L1,108 Z" fill="#F6E1ED"></path>
    <path d="M1.41914711,109.448526 L1.41914711,117.602276 C1.41914711,119.228246 2.71482841,120.551474 4.30782104,120.551474 L207.691469,120.551474 C209.284462,120.551474 210.580853,119.228246 210.580853,117.602276 L210.580853,109.448526 L1.41914711,109.448526 Z M207.691469,122 L4.30782104,122 C1.93287836,122 0,120.027108 0,117.602276 L0,108.724263 C0,108.323745 0.317179378,108 0.709573553,108 L211.290426,108 C211.682821,108 212,108.323745 212,108.724263 L212,117.602276 C212,120.027108 210.067831,122 207.691469,122 L207.691469,122 Z" fill="#201B30"></path>
    <path d="M83,108 L83,111.983333 C83,113.097333 83.9559945,114 85.1358076,114 L126.863486,114 C128.043299,114 129,113.097333 129,111.983333 L129,108 L83,108 Z" fill="#F6E1ED"></path>
    <path d="M83.4296351,109.454545 L83.4296351,113.072727 C83.4296351,113.885091 84.0786895,114.545455 84.8764259,114.545455 L127.122859,114.545455 C127.92131,114.545455 128.570365,113.885091 128.570365,113.072727 L128.570365,109.454545 L83.4296351,109.454545 Z M127.122859,116 L84.8764259,116 C83.2909605,116 82,114.686545 82,113.072727 L82,108.727273 C82,108.325091 82.3195235,108 82.7148176,108 L129.285182,108 C129.680477,108 130,108.325091 130,108.727273 L130,113.072727 C130,114.686545 128.709754,116 127.122859,116 L127.122859,116 Z" fill="#201B30"></path>
    <polygon fill="#FEFEFE" points="182 35.1635978 182 100 30 100 30 11 182 11 182 19.2521127"></polygon>
    <path d="M30.4205332,98.5835248 L181.579467,98.5835248 L181.579467,11.4164752 L30.4205332,11.4164752 L30.4205332,98.5835248 Z M182.289733,100 L29.7102666,100 C29.3174892,100 29,99.6834178 29,99.2917624 L29,10.7082376 C29,10.3165822 29.3174892,10 29.7102666,10 L182.289733,10 C182.682511,10 183,10.3165822 183,10.7082376 L183,99.2917624 C183,99.6834178 182.682511,100 182.289733,100 L182.289733,100 Z" fill="#201B30" mask="url(#mask)"></path>
    <polygon fill="#FEFEFE" mask="url(#mask)" points="30 100 56 100 56 23 30 23"></polygon>
    <path d="M30.5139403,98.4673694 L54.4867587,98.4673694 L54.4867587,23.5333382 L30.5139403,23.5333382 L30.5139403,98.4673694 Z M55.2430298,100 L29.7569702,100 C29.338994,100 29,99.6561134 29,99.2336847 L29,22.7663153 C29,22.3438866 29.338994,22 29.7569702,22 L55.2430298,22 C55.661006,22 56,22.3438866 56,22.7663153 L56,99.2336847 C56,99.6561134 55.661006,100 55.2430298,100 L55.2430298,100 Z" fill="#201B30" mask="url(#mask)"></path>
    <polygon fill="#201B30" mask="url(#mask)" points="30 23 182 23 182 11 30 11"></polygon>
    <path d="M30.5372605,22.4184834 L181.46274,22.4184834 L181.46274,11.5807865 L30.5372605,11.5807865 L30.5372605,22.4184834 Z M182.23137,24 L29.7686302,24 C29.3442158,24 29,23.6458746 29,23.2092417 L29,10.7907583 C29,10.3541254 29.3442158,10 29.7686302,10 L182.23137,10 C182.655784,10 183,10.3541254 183,10.7907583 L183,23.2092417 C183,23.6458746 182.655784,24 182.23137,24 L182.23137,24 Z" fill="#201B30" mask="url(#mask)"></path>
    <polygon fill="#FDCF9D" mask="url(#mask)" points="64 92 175 92 175 58 64 58"></polygon>
    <path d="M64.533781,91.459155 L173.466219,91.459155 L173.466219,58.540845 L64.533781,58.540845 L64.533781,91.459155 Z M174.23311,93 L63.7668905,93 C63.3441448,93 63,92.6549816 63,92.2295775 L63,57.7704225 C63,57.3450184 63.3441448,57 63.7668905,57 L174.23311,57 C174.656563,57 175,57.3450184 175,57.7704225 L175,92.2295775 C175,92.6549816 174.656563,93 174.23311,93 L174.23311,93 Z" fill="#201B30" mask="url(#mask)"></path>
    <polygon fill="#FDCF9D" mask="url(#mask)" points="30 100 56 100 56 38 30 38"></polygon>
    <path d="M30.5139403,98.4754659 L54.4867587,98.4754659 L54.4867587,38.5245341 L30.5139403,38.5245341 L30.5139403,98.4754659 Z M55.2430298,100 L29.7569702,100 C29.338994,100 29,99.65793 29,99.2377329 L29,37.7622671 C29,37.3413661 29.338994,37 29.7569702,37 L55.2430298,37 C55.661006,37 56,37.3413661 56,37.7622671 L56,99.2377329 C56,99.65793 55.661006,100 55.2430298,100 L55.2430298,100 Z" fill="#201B30" mask="url(#mask)"></path>
    <polygon fill="#FEFEFE" mask="url(#mask)" points="56 31 64 31 64 23 56 23"></polygon>
    <path d="M56.5658209,30.4341791 L63.4341791,30.4341791 L63.4341791,23.5658209 L56.5658209,23.5658209 L56.5658209,30.4341791 Z M64.2170896,32 L55.7829104,32 C55.3513338,32 55,31.6493891 55,31.2170896 L55,22.7829104 C55,22.3513338 55.3513338,22 55.7829104,22 L64.2170896,22 C64.6493891,22 65,22.3513338 65,22.7829104 L65,31.2170896 C65,31.6493891 64.6493891,32 64.2170896,32 L64.2170896,32 Z" fill="#201B30" mask="url(#mask)"></path>
    <polygon fill="#FEFEFE" mask="url(#mask)" points="64 31 72 31 72 23 64 23"></polygon>
    <path d="M64.5658209,30.4341791 L71.4341791,30.4341791 L71.4341791,23.5658209 L64.5658209,23.5658209 L64.5658209,30.4341791 Z M72.2170896,32 L63.7829104,32 C63.3513338,32 63,31.6493891 63,31.2170896 L63,22.7829104 C63,22.3513338 63.3513338,22 63.7829104,22 L72.2170896,22 C72.6493891,22 73,22.3513338 73,22.7829104 L73,31.2170896 C73,31.6493891 72.6493891,32 72.2170896,32 L72.2170896,32 Z" fill="#201B30" mask="url(#mask)"></path>
    <polygon fill="#FEFEFE" mask="url(#mask)" points="72 31 80 31 80 23 72 23"></polygon>
    <path d="M72.5657077,30.4341791 L79.4342923,30.4341791 L79.4342923,23.5658209 L72.5657077,23.5658209 L72.5657077,30.4341791 Z M80.2171462,32 L71.7828538,32 C71.3513084,32 71,31.6493891 71,31.2170896 L71,22.7829104 C71,22.3513338 71.3513084,22 71.7828538,22 L80.2171462,22 C80.6494145,22 81,22.3513338 81,22.7829104 L81,31.2170896 C81,31.6493891 80.6494145,32 80.2171462,32 L80.2171462,32 Z" fill="#201B30" mask="url(#mask)"></path>
    <polygon fill="#FEFEFE" mask="url(#mask)" points="80 31 88 31 88 23 80 23"></polygon>
    <path d="M81.5658209,30.4341791 L88.4341791,30.4341791 L88.4341791,23.5658209 L81.5658209,23.5658209 L81.5658209,30.4341791 Z M89.2170896,32 L80.7829104,32 C80.3513338,32 80,31.6493891 80,31.2170896 L80,22.7829104 C80,22.3513338 80.3513338,22 80.7829104,22 L89.2170896,22 C89.6493891,22 90,22.3513338 90,22.7829104 L90,31.2170896 C90,31.6493891 89.6493891,32 89.2170896,32 L89.2170896,32 Z" fill="#201B30" mask="url(#mask)"></path>
    <polygon fill="#FEFEFE" mask="url(#mask)" points="89 31 97 31 97 23 89 23"></polygon>
    <path d="M89.5657077,30.4341791 L96.4342923,30.4341791 L96.4342923,23.5658209 L89.5657077,23.5658209 L89.5657077,30.4341791 Z M97.2171462,32 L88.7828538,32 C88.3513084,32 88,31.6493891 88,31.2170896 L88,22.7829104 C88,22.3513338 88.3513084,22 88.7828538,22 L97.2171462,22 C97.6494145,22 98,22.3513338 98,22.7829104 L98,31.2170896 C98,31.6493891 97.6494145,32 97.2171462,32 L97.2171462,32 Z" fill="#201B30" mask="url(#mask)"></path>
    <polygon fill="#FEFEFE" mask="url(#mask)" points="97 31 182 31 182 23 97 23"></polygon>
    <path d="M97.5422553,30.4341791 L181.457745,30.4341791 L181.457745,23.5658209 L97.5422553,23.5658209 L97.5422553,30.4341791 Z M182.228872,32 L96.7711276,32 C96.3460462,32 96,31.6493891 96,31.2170896 L96,22.7829104 C96,22.3513338 96.3460462,22 96.7711276,22 L182.228872,22 C182.654666,22 183,22.3513338 183,22.7829104 L183,31.2170896 C183,31.6493891 182.654666,32 182.228872,32 L182.228872,32 Z" fill="#201B30" mask="url(#mask)"></path>
    <polygon fill="#201B30" mask="url(#mask)" points="64 66 175 66 175 58 64 58"></polygon>
    <path d="M64.533781,65.4073529 L173.466219,65.4073529 L173.466219,58.5919118 L64.533781,58.5919118 L64.533781,65.4073529 Z M174.23311,67 L63.7668905,67 C63.3441448,67 63,66.6433824 63,66.2036765 L63,57.7963235 C63,57.3566176 63.3441448,57 63.7668905,57 L174.23311,57 C174.656563,57 175,57.3566176 175,57.7963235 L175,66.2036765 C175,66.6433824 174.656563,67 174.23311,67 L174.23311,67 Z" fill="#201B30" mask="url(#mask)"></path>
    <path d="M36.5,28.4674797 C35.3794038,28.4674797 34.4674797,29.3794038 34.4674797,30.5 C34.4674797,31.6205962 35.3794038,32.5325203 36.5,32.5325203 C37.6205962,32.5325203 38.5325203,31.6205962 38.5325203,30.5 C38.5325203,29.3794038 37.6205962,28.4674797 36.5,28.4674797 M36.5,34 C34.5697832,34 33,32.4302168 33,30.5 C33,28.5697832 34.5697832,27 36.5,27 C38.4302168,27 40,28.5697832 40,30.5 C40,32.4302168 38.4302168,34 36.5,34" fill="#201B30" mask="url(#mask)"></path>
    <path d="M174.5,15.4914421 C173.39278,15.4914421 172.491442,16.3927799 172.491442,17.5 C172.491442,18.6072201 173.39278,19.5085579 174.5,19.5085579 C175.60722,19.5085579 176.508558,18.6072201 176.508558,17.5 C176.508558,16.3927799 175.60722,15.4914421 174.5,15.4914421 M174.5,21 C172.569939,21 171,19.430061 171,17.5 C171,15.569939 172.569939,14 174.5,14 C176.430061,14 178,15.569939 178,17.5 C178,19.430061 176.430061,21 174.5,21" fill="#FEFEFE" mask="url(#mask)"></path>
    <path d="M47.2411538,31 L42.7588462,31 C42.3398342,31 42,30.5521699 42,30 C42,29.4478301 42.3398342,29 42.7588462,29 L47.2411538,29 C47.6601658,29 48,29.4478301 48,30 C48,30.5521699 47.6601658,31 47.2411538,31" fill="#201B30" mask="url(#mask)"></path>
    <path d="M51.2565898,34 L42.7434102,34 C42.3329215,34 42,33.5521699 42,33 C42,32.4478301 42.3329215,32 42.7434102,32 L51.2565898,32 C51.6670785,32 52,32.4478301 52,33 C52,33.5521699 51.6670785,34 51.2565898,34" fill="#201B30" mask="url(#mask)"></path>
    <path d="M55.2430494,39 L29.7569506,39 C29.3389852,39 29,38.5521699 29,38 C29,37.4478301 29.3389852,37 29.7569506,37 L55.2430494,37 C55.6610148,37 56,37.4478301 56,38 C56,38.5521699 55.6610148,39 55.2430494,39" fill="#201B30" mask="url(#mask)"></path>
    <path d="M55.2430494,61 L29.7569506,61 C29.3389852,61 29,60.5521699 29,60 C29,59.4478301 29.3389852,59 29.7569506,59 L55.2430494,59 C55.6610148,59 56,59.4478301 56,60 C56,60.5521699 55.6610148,61 55.2430494,61" fill="#201B30" mask="url(#mask)"></path>
    <path d="M39.1704328,46 L34.8295672,46 C34.3715052,46 34,45.5521699 34,45 C34,44.4478301 34.3715052,44 34.8295672,44 L39.1704328,44 C39.6284948,44 40,44.4478301 40,45 C40,45.5521699 39.6284948,46 39.1704328,46" fill="#201B30" mask="url(#mask)"></path>
    <path d="M52.2186741,50 L34.7813259,50 C34.3499013,50 34,49.5521699 34,49 C34,48.4478301 34.3499013,48 34.7813259,48 L52.2186741,48 C52.6500987,48 53,48.4478301 53,49 C53,49.5521699 52.6500987,50 52.2186741,50" fill="#201B30" mask="url(#mask)"></path>
    <path d="M52.2186741,54 L34.7813259,54 C34.3499013,54 34,53.5521699 34,53 C34,52.4478301 34.3499013,52 34.7813259,52 L52.2186741,52 C52.6500987,52 53,52.4478301 53,53 C53,53.5521699 52.6500987,54 52.2186741,54" fill="#201B30" mask="url(#mask)"></path>
    <path d="M68.1703269,42 L63.8296731,42 C63.3715526,42 63,41.5521699 63,41 C63,40.4478301 63.3715526,40 63.8296731,40 L68.1703269,40 C68.6284474,40 69,40.4478301 69,41 C69,41.5521699 68.6284474,42 68.1703269,42" fill="#201B30" mask="url(#mask)"></path>
    <path d="M132.231003,46 L63.7689967,46 C63.3443799,46 63,45.5521699 63,45 C63,44.4478301 63.3443799,44 63.7689967,44 L132.231003,44 C132.65562,44 133,44.4478301 133,45 C133,45.5521699 132.65562,46 132.231003,46" fill="#201B30" mask="url(#mask)"></path>
    <path d="M132.231003,50 L63.7689967,50 C63.3443799,50 63,49.5521699 63,49 C63,48.4478301 63.3443799,48 63.7689967,48 L132.231003,48 C132.65562,48 133,48.4478301 133,49 C133,49.5521699 132.65562,50 132.231003,50" fill="#201B30" mask="url(#mask)"></path>
    <path d="M39.1704328,66 L34.8295672,66 C34.3715052,66 34,65.5521699 34,65 C34,64.4478301 34.3715052,64 34.8295672,64 L39.1704328,64 C39.6284948,64 40,64.4478301 40,65 C40,65.5521699 39.6284948,66 39.1704328,66" fill="#201B30" mask="url(#mask)"></path>
    <path d="M52.2186741,70 L34.7813259,70 C34.3499013,70 34,69.5521699 34,69 C34,68.4478301 34.3499013,68 34.7813259,68 L52.2186741,68 C52.6500987,68 53,68.4478301 53,69 C53,69.5521699 52.6500987,70 52.2186741,70" fill="#201B30" mask="url(#mask)"></path>
    <path d="M52.2186741,74 L34.7813259,74 C34.3499013,74 34,73.5521699 34,73 C34,72.4478301 34.3499013,72 34.7813259,72 L52.2186741,72 C52.6500987,72 53,72.4478301 53,73 C53,73.5521699 52.6500987,74 52.2186741,74" fill="#201B30" mask="url(#mask)"></path>
    <polygon fill="#FEFEFE" mask="url(#mask)" points="68 81 169 81 169 74 68 74"></polygon>
    <path d="M68.4223278,79.6382979 L168.577672,79.6382979 L168.577672,74.3617021 L68.4223278,74.3617021 L68.4223278,79.6382979 Z M169.288836,81 L67.7111639,81 C67.3186014,81 67,80.6956596 67,80.3191489 L67,73.6808511 C67,73.3043404 67.3186014,73 67.7111639,73 L169.288836,73 C169.68211,73 170,73.3043404 170,73.6808511 L170,80.3191489 C170,80.6956596 169.68211,81 169.288836,81 L169.288836,81 Z" fill="#201B30" mask="url(#mask)"></path>
    <path d="M81.2201901,71 L67.7798099,71 C67.3492224,71 67,70.5521699 67,70 C67,69.4478301 67.3492224,69 67.7798099,69 L81.2201901,69 C81.6507776,69 82,69.4478301 82,70 C82,70.5521699 81.6507776,71 81.2201901,71" fill="#201B30" mask="url(#mask)"></path>
    <path d="M47.2085813,18 L34.7914187,18 C34.3544211,18 34,17.5521699 34,17 C34,16.4478301 34.3544211,16 34.7914187,16 L47.2085813,16 C47.6455789,16 48,16.4478301 48,17 C48,17.5521699 47.6455789,18 47.2085813,18" fill="#FEFEFE" mask="url(#mask)"></path>
    <path d="M167.187318,18 L160.812682,18 C160.363943,18 160,17.5521699 160,17 C160,16.4478301 160.363943,16 160.812682,16 L167.187318,16 C167.636057,16 168,16.4478301 168,17 C168,17.5521699 167.636057,18 167.187318,18" fill="#FEFEFE" mask="url(#mask)"></path>
    <path d="M158.187318,18 L151.812682,18 C151.363943,18 151,17.5521699 151,17 C151,16.4478301 151.363943,16 151.812682,16 L158.187318,16 C158.636057,16 159,16.4478301 159,17 C159,17.5521699 158.636057,18 158.187318,18" fill="#FEFEFE" mask="url(#mask)"></path>
    <polygon fill="#201B30" mask="url(#mask)" points="68 87 88 87 88 84 68 84"></polygon>
    <path d="M68.407837,86.7365761 L86.592163,86.7365761 L86.592163,85.2634239 L68.407837,85.2634239 L68.407837,86.7365761 Z M87.2960815,88 L67.7039185,88 C67.3153555,88 67,87.7176248 67,87.3682881 L67,84.6317119 C67,84.2823752 67.3153555,84 67.7039185,84 L87.2960815,84 C87.6853484,84 88,84.2823752 88,84.6317119 L88,87.3682881 C88,87.7176248 87.6853484,88 87.2960815,88 L87.2960815,88 Z" fill="#201B30" mask="url(#mask)"></path>
  </g>
</svg>
